<?xml version="1.0" encoding="UTF-8"?>
<svg id="Vrstva_2" data-name="Vrstva 2" xmlns="http://www.w3.org/2000/svg" viewBox="0 0 283.7 279.57">
  <defs>
    <style>
      .cls-1 {
        fill: #2196f3;
        stroke: #1d1d1b;
        stroke-width: 3px;
      }

      .cls-1, .cls-2 {
        stroke-miterlimit: 10;
      }

      .cls-2 {
        fill: none;
        stroke: #2196f3;
        stroke-width: 9px;
      }
    </style>
  </defs>
  <g id="Logo">
    <g id="Kolo_hlavní_kopie" data-name="Kolo hlavní kopie">
      <circle id="Střed" class="cls-1" cx="141.85" cy="139.79" r="12.45"/>
      <g>
        <g id="_Radiální_opakování_" data-name=" Radiální opakování ">
          <path class="cls-1" d="M95.14,212.04l23.8.84c-.21,6.02-2.7,11.74-6.96,16-9.24,9.24-24.44,9.24-33.68,0s-9.24-24.44,0-33.68,24.44-9.24,33.68,0c2.52,2.52,4.44,5.57,5.62,8.92l-22.46,7.91h0Z"/>
        </g>
        <g id="_Radiální_opakování_-2" data-name=" Radiální opakování -2">
          <path class="cls-1" d="M57.73,157.85l16.23,17.42c-4.41,4.1-10.21,6.39-16.23,6.39-13.06,0-23.81-10.75-23.81-23.81s10.75-23.81,23.81-23.81,23.81,10.75,23.81,23.81c0,3.56-.8,7.07-2.34,10.28l-21.48-10.28h.01Z"/>
        </g>
        <g id="_Radiální_opakování_-3" data-name=" Radiální opakování -3">
          <path class="cls-1" d="M69.6,93.08l-.84,23.8c-6.02-.21-11.74-2.7-16-6.96-9.24-9.24-9.24-24.44,0-33.68s24.44-9.24,33.68,0,9.24,24.44,0,33.68c-2.52,2.52-5.57,4.44-8.92,5.62l-7.91-22.46h-.01Z"/>
        </g>
        <g id="_Radiální_opakování_-4" data-name=" Radiální opakování -4">
          <path class="cls-1" d="M123.79,55.67l-17.42,16.23c-4.1-4.41-6.39-10.21-6.39-16.23,0-13.06,10.75-23.81,23.81-23.81s23.81,10.75,23.81,23.81-10.75,23.81-23.81,23.81c-3.56,0-7.07-.8-10.28-2.34l10.28-21.48h0Z"/>
        </g>
        <g id="_Radiální_opakování_-5" data-name=" Radiální opakování -5">
          <path class="cls-1" d="M188.56,67.53l-23.8-.84c.21-6.02,2.7-11.74,6.96-16,9.24-9.24,24.44-9.24,33.68,0,9.24,9.24,9.24,24.44,0,33.68s-24.44,9.24-33.68,0c-2.52-2.52-4.44-5.57-5.62-8.92l22.46-7.91h0Z"/>
        </g>
        <g id="_Radiální_opakování_-6" data-name=" Radiální opakování -6">
          <path class="cls-1" d="M225.97,121.72l-16.23-17.42c4.41-4.1,10.21-6.39,16.23-6.39,13.06,0,23.81,10.75,23.81,23.81s-10.75,23.81-23.81,23.81-23.81-10.75-23.81-23.81c0-3.56.8-7.07,2.34-10.28l21.48,10.28h0Z"/>
        </g>
        <g id="_Radiální_opakování_-7" data-name=" Radiální opakování -7">
          <path class="cls-1" d="M214.1,186.49l.84-23.8c6.02.21,11.74,2.7,16,6.96,9.24,9.24,9.24,24.44,0,33.68s-24.44,9.24-33.68,0c-9.24-9.24-9.24-24.44,0-33.68,2.52-2.52,5.57-4.44,8.92-5.62l7.91,22.46h0Z"/>
        </g>
        <g id="_Radiální_opakování_-8" data-name=" Radiální opakování -8">
          <path class="cls-1" d="M159.91,223.9l17.42-16.23c4.1,4.41,6.39,10.21,6.39,16.23,0,13.06-10.75,23.81-23.81,23.81s-23.81-10.75-23.81-23.81,10.75-23.81,23.81-23.81c3.56,0,7.07.8,10.28,2.34l-10.28,21.48h0Z"/>
        </g>
      </g>
      <ellipse id="Obrys" class="cls-2" cx="141.85" cy="139.79" rx="137.35" ry="135.29"/>
    </g>
  </g>
</svg>