<?xml version="1.0" encoding="UTF-8"?>
<svg id="Vrstva_2" data-name="Vrstva 2" xmlns="http://www.w3.org/2000/svg" viewBox="0 0 416.62 345.03">
  <defs>
    <style>
      .cls-1 {
        fill: #b51917;
        stroke-width: 0px;
      }

      .cls-2 {
        stroke-width: 8px;
      }

      .cls-2, .cls-3 {
        fill: none;
        stroke: #b51917;
        stroke-miterlimit: 10;
      }

      .cls-3 {
        stroke-width: 9px;
      }
    </style>
  </defs>
  <g id="Logo">
    <g id="Kolo_vedlejší" data-name="Kolo vedlejší">
      <g id="Díry">
        <g id="_Radiální_opakování_" data-name="&amp;lt;Radiální opakování&amp;gt;">
          <path class="cls-1" d="M67.89,179.73l20.68,8.69c-2.2,5.23-6.3,9.43-11.47,11.76-11.22,5.05-24.61-.03-29.66-11.25-5.05-11.22.03-24.61,11.25-29.66,11.22-5.05,24.61.03,29.66,11.25,1.38,3.06,2.05,6.39,1.97,9.74l-22.42-.54Z"/>
        </g>
        <g id="_Radiální_opakování_-2" data-name="&amp;lt;Radiální opakování&amp;gt;">
          <path class="cls-1" d="M53.05,119.51l8.47,20.77c-5.25,2.14-11.13,2.21-16.43.2-11.5-4.37-17.38-17.42-13.01-28.93,4.37-11.5,17.42-17.38,28.93-13.01,11.5,4.37,17.38,17.42,13.01,28.93-1.19,3.13-3.07,5.96-5.49,8.28l-15.48-16.23Z"/>
        </g>
        <g id="_Radiální_opakování_-3" data-name="&amp;lt;Radiální opakování&amp;gt;">
          <path class="cls-1" d="M85.14,66.43l-8.69,20.68c-5.23-2.2-9.43-6.3-11.76-11.47-5.05-11.22.03-24.61,11.25-29.66,11.22-5.05,24.61.03,29.66,11.25s-.03,24.61-11.25,29.66c-3.06,1.38-6.39,2.05-9.74,1.97l.54-22.42Z"/>
        </g>
        <g id="_Radiální_opakování_-4" data-name="&amp;lt;Radiální opakování&amp;gt;">
          <path class="cls-1" d="M145.37,51.6l-20.77,8.47c-2.14-5.25-2.21-11.13-.2-16.43,4.37-11.5,17.42-17.38,28.93-13.01,11.5,4.37,17.38,17.42,13.01,28.93-4.37,11.5-17.42,17.38-28.93,13.01-3.13-1.19-5.96-3.07-8.28-5.49l16.23-15.48Z"/>
        </g>
        <path class="cls-1" d="M116.75,205.24c0-5.25.27-10.43.78-15.55-7.7,1.23-14.6,6.42-17.54,14.17-4.37,11.5,1.51,24.56,13.01,28.93,2.13.81,4.31,1.26,6.48,1.4-1.79-9.38-2.74-19.06-2.74-28.95Z"/>
        <path class="cls-1" d="M207.32,61.57c-6.25-2.16-13.4-1.58-19.36,2.2-4.79,3.04-8.25,7.78-9.69,13.27l6.74,1.76c6.87-6.36,14.33-12.13,22.31-17.23Z"/>
        <path class="cls-1" d="M129.01,142.67c.3.11.61.21.91.29,3.11-7.01,6.73-13.76,10.82-20.19-.99-.84-2.13-1.54-3.42-2.03-6.05-2.3-12.82.75-15.12,6.8s.75,12.82,6.8,15.12Z"/>
      </g>
      <path id="Obrys" class="cls-2" d="M116.75,205.24c0-72.51,50.34-133.45,118.48-150.74-14.2-18.29-33.52-33.08-56.86-41.93C111.57-12.78,37.18,20.01,12.21,85.81c-24.97,65.8,8.94,139.69,75.75,165.04,12.7,4.82,25.68,7.53,38.54,8.32-6.3-16.8-9.75-34.97-9.75-53.93Z"/>
    </g>
    <g id="Kolo_hlavní_kopie" data-name="Kolo hlavní kopie">
      <circle id="Střed" class="cls-1" cx="274.77" cy="205.24" r="12.45"/>
      <g>
        <g id="_Radiální_opakování_-5" data-name="&amp;lt;Radiální opakování&amp;gt;">
          <path class="cls-1" d="M228.07,277.49l23.8.84c-.21,6.02-2.7,11.74-6.96,16-9.24,9.24-24.44,9.24-33.68,0-9.24-9.24-9.24-24.44,0-33.68,9.24-9.24,24.44-9.24,33.68,0,2.52,2.52,4.44,5.57,5.62,8.92l-22.46,7.91Z"/>
        </g>
        <g id="_Radiální_opakování_-6" data-name="&amp;lt;Radiální opakování&amp;gt;">
          <path class="cls-1" d="M190.66,223.3l16.23,17.42c-4.41,4.1-10.21,6.39-16.23,6.39-13.06,0-23.81-10.75-23.81-23.81,0-13.06,10.75-23.81,23.81-23.81s23.81,10.75,23.81,23.81c0,3.56-.8,7.07-2.34,10.28l-21.48-10.28Z"/>
        </g>
        <g id="_Radiální_opakování_-7" data-name="&amp;lt;Radiální opakování&amp;gt;">
          <path class="cls-1" d="M202.52,158.53l-.84,23.8c-6.02-.21-11.74-2.7-16-6.96-9.24-9.24-9.24-24.44,0-33.68,9.24-9.24,24.44-9.24,33.68,0,9.24,9.24,9.24,24.44,0,33.68-2.52,2.52-5.57,4.44-8.92,5.62l-7.91-22.46Z"/>
        </g>
        <g id="_Radiální_opakování_-8" data-name="&amp;lt;Radiální opakování&amp;gt;">
          <path class="cls-1" d="M256.71,121.12l-17.42,16.23c-4.1-4.41-6.39-10.21-6.39-16.23,0-13.06,10.75-23.81,23.81-23.81,13.06,0,23.81,10.75,23.81,23.81s-10.75,23.81-23.81,23.81c-3.56,0-7.07-.8-10.28-2.34l10.28-21.48Z"/>
        </g>
        <g id="_Radiální_opakování_-9" data-name="&amp;lt;Radiální opakování&amp;gt;">
          <path class="cls-1" d="M321.48,132.99l-23.8-.84c.21-6.02,2.7-11.74,6.96-16,9.24-9.24,24.44-9.24,33.68,0,9.24,9.24,9.24,24.44,0,33.68-9.24,9.24-24.44,9.24-33.68,0-2.52-2.52-4.44-5.57-5.62-8.92l22.46-7.91Z"/>
        </g>
        <g id="_Radiální_opakování_-10" data-name="&amp;lt;Radiální opakování&amp;gt;">
          <path class="cls-1" d="M358.89,187.18l-16.23-17.42c4.41-4.1,10.21-6.39,16.23-6.39,13.06,0,23.81,10.75,23.81,23.81,0,13.06-10.75,23.81-23.81,23.81s-23.81-10.75-23.81-23.81c0-3.56.8-7.07,2.34-10.28l21.48,10.28Z"/>
        </g>
        <g id="_Radiální_opakování_-11" data-name="&amp;lt;Radiální opakování&amp;gt;">
          <path class="cls-1" d="M347.03,251.95l.84-23.8c6.02.21,11.74,2.7,16,6.96,9.24,9.24,9.24,24.44,0,33.68-9.24,9.24-24.44,9.24-33.68,0-9.24-9.24-9.24-24.44,0-33.68,2.52-2.52,5.57-4.44,8.92-5.62l7.91,22.46Z"/>
        </g>
        <g id="_Radiální_opakování_-12" data-name="&amp;lt;Radiální opakování&amp;gt;">
          <path class="cls-1" d="M292.84,289.36l17.42-16.23c4.1,4.41,6.39,10.21,6.39,16.23,0,13.06-10.75,23.81-23.81,23.81-13.06,0-23.81-10.75-23.81-23.81s10.75-23.81,23.81-23.81c3.56,0,7.07.8,10.28,2.34l-10.28,21.48Z"/>
        </g>
      </g>
      <ellipse id="Obrys-2" data-name="Obrys" class="cls-3" cx="274.77" cy="205.24" rx="137.35" ry="135.29"/>
    </g>
  </g>
</svg>